HIERARCHY
ROOT Hips
{
 OFFSET 0.000000 0.000000 0.000000
 CHANNELS 6 Xposition Yposition Zposition Yrotation Xrotation Zrotation
 JOINT Chest
 {
  OFFSET 0.000000 14.374500 -0.011500
  CHANNELS 3 Yrotation Xrotation Zrotation
  JOINT Chest2
  {
   OFFSET 0.000000 9.203400 0.023400
   CHANNELS 3 Yrotation Xrotation Zrotation
   JOINT Chest3
   {
    OFFSET 0.000000 9.162700 0.000000
    CHANNELS 3 Yrotation Xrotation Zrotation
    JOINT Chest4
    {
     OFFSET 0.000000 9.153300 0.000000
     CHANNELS 3 Yrotation Xrotation Zrotation
     JOINT Neck
     {
      OFFSET 0.000000 13.353600 0.000000
      CHANNELS 3 Yrotation Xrotation Zrotation
      JOINT Head
      {
       OFFSET 0.000000 8.573800 0.049400
       CHANNELS 3 Yrotation Xrotation Zrotation
       End Site
       {
        OFFSET 0.000000 16.219200 0.026100
       }
      }
     }
     JOINT RightCollar
     {
      OFFSET -2.497100 8.876100 0.000000
      CHANNELS 3 Yrotation Xrotation Zrotation
      JOINT RightShoulder
      {
       OFFSET -12.289200 0.000000 0.000000
       CHANNELS 3 Yrotation Xrotation Zrotation
       JOINT RightElbow
       {
        OFFSET 0.000000 -28.194900 0.000000
        CHANNELS 3 Yrotation Xrotation Zrotation
        JOINT RightWrist
        {
         OFFSET 0.000000 -23.009700 0.007900
         CHANNELS 3 Yrotation Xrotation Zrotation
         End Site
         {
          OFFSET 0.000000 -17.151500 0.000000
         }
        }
       }
      }
     }
     JOINT LeftCollar
     {
      OFFSET 2.497100 8.876100 0.000000
      CHANNELS 3 Yrotation Xrotation Zrotation
      JOINT LeftShoulder
      {
       OFFSET 12.289200 0.000000 0.000000
       CHANNELS 3 Yrotation Xrotation Zrotation
       JOINT LeftElbow
       {
        OFFSET 0.000000 -28.194900 0.000000
        CHANNELS 3 Yrotation Xrotation Zrotation
        JOINT LeftWrist
        {
         OFFSET 0.000000 -23.009700 0.007900
         CHANNELS 3 Yrotation Xrotation Zrotation
         End Site
         {
          OFFSET 0.000000 -17.151500 0.000000
         }
        }
       }
      }
     }
    }
   }
  }
 }
 JOINT RightHip
 {
  OFFSET -11.777600 0.056700 0.005700
  CHANNELS 3 Yrotation Xrotation Zrotation
  JOINT RightKnee
  {
   OFFSET 0.000000 -39.966000 -0.004200
   CHANNELS 3 Yrotation Xrotation Zrotation
   JOINT RightAnkle
   {
    OFFSET 0.000000 -41.981900 0.027400
    CHANNELS 3 Yrotation Xrotation Zrotation
    JOINT RightToe
    {
     OFFSET 0.000000 -9.910600 16.950100
     CHANNELS 3 Yrotation Xrotation Zrotation
     End Site
     {
      OFFSET 0.000000 -1.461000 6.191600
     }
    }
   }
  }
 }
 JOINT LeftHip
 {
  OFFSET 11.777600 0.056700 0.005700
  CHANNELS 3 Yrotation Xrotation Zrotation
  JOINT LeftKnee
  {
   OFFSET 0.000000 -39.966000 -0.004200
   CHANNELS 3 Yrotation Xrotation Zrotation
   JOINT LeftAnkle
   {
    OFFSET 0.000000 -41.981900 0.027400
    CHANNELS 3 Yrotation Xrotation Zrotation
    JOINT LeftToe
    {
     OFFSET 0.000000 -9.910600 16.950100
     CHANNELS 3 Yrotation Xrotation Zrotation
     End Site
     {
      OFFSET 0.000000 -1.461000 6.191600
     }
    }
   }
  }
 }
}
MOTION
Frames: 6
Frame Time: 0.008333
3.872265 130.389446 27.187894 173.498386 -55.655536 -2.439562 3.901224 28.728682 3.766219 0.562779 5.414677 0.535534 0.938147 8.469650 0.853868 2.923468 23.142723 2.806024 2.247254 17.891012 0.640698 2.224982 -6.877195 0.164988 -1.016550 2.560303 -0.558024 9.095883 -11.119386 -8.973842 -152.429066 -69.243476 177.699585 15.798676 -12.147823 -22.820246 -8.745466 -0.735955 1.169386 -4.555940 -9.420990 6.761783 110.709982 -69.401292 -149.374049 -10.264583 -31.607273 33.329297 6.259805 -22.577332 2.573703 -64.784460 85.490306 -67.369554 1.341018 -24.291989 7.980304 -0.018192 -0.040073 -0.010633 0.646817 -18.565782 -3.390070 146.851135 67.752969 159.362586 -1.248829 9.039652 -7.305693 -0.001316 0.016636 -0.000769
3.874513 130.397091 27.172264 173.524165 -55.644986 -2.452457 3.914212 28.731883 3.764278 0.565320 5.403218 0.533895 0.935039 8.451255 0.861715 2.935222 23.124874 2.807718 2.293216 17.925741 0.720168 2.256077 -6.837912 0.238521 -1.035065 2.498760 -0.496659 9.359004 -11.135188 -9.065021 -152.471125 -69.295726 177.674527 15.824961 -12.163908 -22.823232 -8.763469 -0.764596 1.204046 -4.658626 -9.423726 6.801450 110.888415 -69.396851 -149.842350 -10.281188 -31.635202 33.261430 6.273641 -22.584084 2.575285 -65.050789 85.510134 -67.634935 1.323788 -24.290897 7.986033 -0.012419 -0.025704 -0.007259 0.621266 -18.571453 -3.376228 146.894082 67.734772 159.394565 -1.264716 9.041451 -7.307771 0.001704 -0.000157 0.000996
3.872130 130.401621 27.158286 173.544882 -55.620112 -2.441346 3.916318 28.722464 3.747871 0.567875 5.387433 0.540531 0.915669 8.436297 0.863332 2.941092 23.107467 2.811677 2.327863 17.941306 0.776623 2.280184 -6.819870 0.290301 -1.035708 2.462647 -0.459443 9.580594 -11.152547 -9.139421 -152.482108 -69.282940 177.678022 15.840887 -12.176813 -22.821405 -8.763850 -0.795360 1.211676 -4.843056 -9.445645 6.840636 111.253458 -69.410801 -150.443372 -10.304009 -31.649799 33.181256 6.294208 -22.600410 2.569138 -65.530733 85.554409 -68.134176 1.289567 -24.288238 8.008823 -0.023096 -0.034350 -0.013499 0.594585 -18.596749 -3.367984 146.982734 67.737312 159.462645 -1.296414 9.088452 -7.322916 0.018153 -0.014433 0.010613
3.877185 130.403551 27.147460 173.538179 -55.581260 -2.436837 3.923641 28.688304 3.753515 0.562184 5.382074 0.542897 0.904257 8.419471 0.877915 2.937469 23.089521 2.816513 2.355609 17.940626 0.806798 2.302785 -6.819840 0.315887 -1.014636 2.454701 -0.458970 9.734315 -11.174427 -9.190484 -152.418381 -69.203487 177.696900 15.847373 -12.183322 -22.815433 -8.736634 -0.830112 1.190813 -5.082054 -9.471464 6.864522 111.774322 -69.446016 -151.169963 -10.328332 -31.651018 33.091102 6.329329 -22.636651 2.609498 -66.129935 85.542585 -68.731242 1.243206 -24.296562 8.028440 -0.007958 -0.040843 -0.004651 0.586254 -18.635764 -3.343900 147.028708 67.706716 159.508797 -1.327703 9.100003 -7.335901 0.016143 -0.010157 0.009438
3.884617 130.396847 27.143059 173.493615 -55.498488 -2.412502 3.935395 28.615077 3.772420 0.566786 5.371334 0.534146 0.874564 8.402361 0.902096 2.922858 23.069989 2.821510 2.377028 17.959829 0.778048 2.321249 -6.869985 0.347625 -0.981497 2.481151 -0.507854 9.821675 -11.210582 -9.210273 -152.265045 -69.068357 177.728252 15.844547 -12.183647 -22.809844 -8.694189 -0.832571 1.134350 -5.374443 -9.546678 6.905388 112.333662 -69.488900 -151.892151 -10.356929 -31.645709 32.997191 6.365450 -22.724908 2.640328 -66.687990 85.554119 -69.289935 1.217001 -24.319114 8.038476 -0.007514 -0.033962 -0.004392 0.592006 -18.717031 -3.301873 147.093170 67.640831 159.572907 -1.368391 9.032186 -7.349163 0.015986 0.027221 0.009350
3.888692 130.398954 27.131997 173.475521 -55.454634 -2.393565 3.862233 28.605639 3.785222 0.542807 5.349442 0.545094 0.928241 8.388102 0.843189 2.878374 23.039850 2.857560 2.408603 17.977206 0.725475 2.321412 -6.943920 0.362178 -0.837859 2.440371 -0.489832 9.775407 -11.148429 -9.292634 -152.037616 -68.896062 177.777726 15.833908 -12.182235 -22.805559 -8.625273 -0.836396 1.055109 -5.720254 -9.638045 6.960769 112.843467 -69.524753 -152.538821 -10.393743 -31.646736 32.906254 6.380779 -22.777260 2.638444 -67.265970 85.591059 -69.872852 1.232289 -24.292703 8.027916 -0.010741 -0.010686 -0.006279 0.593227 -18.762419 -3.285292 147.167928 67.610796 159.643505 -1.389026 9.042671 -7.356865 0.012567 0.023677 0.007350
